<svg width="256" height="256" viewBox="0 0 256 256" fill="none" xmlns="http://www.w3.org/2000/svg">
<path d="M222.91 158.563L196.747 132.4C194.404 130.057 194.404 126.258 196.747 123.915L222.91 97.7522L239.174 114.016C246.984 121.826 246.984 134.489 239.174 142.3L222.91 158.563Z" fill="white"/>
<path d="M142.3 239.174C134.489 246.984 121.826 246.984 114.016 239.174L97.7521 222.91L177.655 143.007C179.998 140.664 183.797 140.664 186.14 143.007L212.303 169.17L142.3 239.174Z" fill="white"/>
<path d="M212.303 87.1457L186.14 113.309C183.797 115.652 179.998 115.652 177.655 113.309L97.7519 33.4056L114.015 17.1421C121.826 9.33166 134.489 9.33166 142.3 17.1421L212.303 87.1457Z" fill="white"/>
<path d="M87.1455 212.304L17.1419 142.3C9.33144 134.49 9.33145 121.826 17.1419 114.016L87.1455 44.0122L167.049 123.915C169.392 126.258 169.392 130.057 167.049 132.401L87.1455 212.304Z" fill="white"/>
</svg>
